<svg width="56" height="55" viewBox="0 0 56 55" fill="none" xmlns="http://www.w3.org/2000/svg">
<rect x="1.5" y="1" width="53" height="53" stroke="#5C8692" stroke-width="2"/>
<path d="M35.6367 23.5938C36.3398 23.0664 36.9727 22.4336 37.4648 21.6953C36.832 21.9766 36.0938 22.1875 35.3555 22.2578C36.1289 21.8008 36.6914 21.0977 36.9727 20.2188C36.2695 20.6406 35.4609 20.957 34.6523 21.1328C33.9492 20.3945 33 19.9727 31.9453 19.9727C29.9062 19.9727 28.2539 21.625 28.2539 23.6641C28.2539 23.9453 28.2891 24.2266 28.3594 24.5078C25.3008 24.332 22.5586 22.8555 20.7305 20.6406C20.4141 21.168 20.2383 21.8008 20.2383 22.5039C20.2383 23.7695 20.8711 24.8945 21.8906 25.5625C21.293 25.5273 20.6953 25.3867 20.2031 25.1055V25.1406C20.2031 26.9336 21.4688 28.4102 23.1562 28.7617C22.875 28.832 22.5234 28.9023 22.207 28.9023C21.9609 28.9023 21.75 28.8672 21.5039 28.832C21.9609 30.3086 23.332 31.3633 24.9492 31.3984C23.6836 32.3828 22.1016 32.9805 20.3789 32.9805C20.0625 32.9805 19.7812 32.9453 19.5 32.9102C21.1172 33.9648 23.0508 34.5625 25.1602 34.5625C31.9453 34.5625 35.6367 28.9727 35.6367 24.0859C35.6367 23.9102 35.6367 23.7695 35.6367 23.5938Z" fill="white"/>
</svg>
