<svg width="56" height="55" viewBox="0 0 56 55" fill="none" xmlns="http://www.w3.org/2000/svg">
<rect x="1.5" y="1" width="53" height="53" stroke="#5C8692" stroke-width="2"/>
<path d="M24.1406 33V22.4883H20.8711V33H24.1406ZM22.4883 21.082C23.543 21.082 24.3867 20.2031 24.3867 19.1484C24.3867 18.1289 23.543 17.2852 22.4883 17.2852C21.4688 17.2852 20.625 18.1289 20.625 19.1484C20.625 20.2031 21.4688 21.082 22.4883 21.082ZM36.3398 33H36.375V27.2344C36.375 24.4219 35.7422 22.2422 32.4375 22.2422C30.8555 22.2422 29.8008 23.1211 29.3438 23.9297H29.3086V22.4883H26.1797V33H29.4492V27.7969C29.4492 26.4258 29.6953 25.125 31.3828 25.125C33.0703 25.125 33.1055 26.6719 33.1055 27.9023V33H36.3398Z" fill="white"/>
</svg>
