<svg width="56" height="55" viewBox="0 0 56 55" fill="none" xmlns="http://www.w3.org/2000/svg">
<rect x="1.5" y="1" width="53" height="53" stroke="#5C8692" stroke-width="2"/>
<path d="M28 22.6074C25.625 22.6074 23.7324 24.5371 23.7324 26.875C23.7324 29.25 25.625 31.1426 28 31.1426C30.3379 31.1426 32.2676 29.25 32.2676 26.875C32.2676 24.5371 30.3379 22.6074 28 22.6074ZM28 29.6582C26.4785 29.6582 25.2168 28.4336 25.2168 26.875C25.2168 25.3535 26.4414 24.1289 28 24.1289C29.5215 24.1289 30.7461 25.3535 30.7461 26.875C30.7461 28.4336 29.5215 29.6582 28 29.6582ZM33.418 22.459C33.418 21.9023 32.9727 21.457 32.416 21.457C31.8594 21.457 31.4141 21.9023 31.4141 22.459C31.4141 23.0156 31.8594 23.4609 32.416 23.4609C32.9727 23.4609 33.418 23.0156 33.418 22.459ZM36.2383 23.4609C36.1641 22.125 35.8672 20.9375 34.9023 19.9727C33.9375 19.0078 32.75 18.7109 31.4141 18.6367C30.041 18.5625 25.9219 18.5625 24.5488 18.6367C23.2129 18.7109 22.0625 19.0078 21.0605 19.9727C20.0957 20.9375 19.7988 22.125 19.7246 23.4609C19.6504 24.834 19.6504 28.9531 19.7246 30.3262C19.7988 31.6621 20.0957 32.8125 21.0605 33.8145C22.0625 34.7793 23.2129 35.0762 24.5488 35.1504C25.9219 35.2246 30.041 35.2246 31.4141 35.1504C32.75 35.0762 33.9375 34.7793 34.9023 33.8145C35.8672 32.8125 36.1641 31.6621 36.2383 30.3262C36.3125 28.9531 36.3125 24.834 36.2383 23.4609ZM34.457 31.7734C34.1973 32.5156 33.6035 33.0723 32.8984 33.3691C31.7852 33.8145 29.1875 33.7031 28 33.7031C26.7754 33.7031 24.1777 33.8145 23.1016 33.3691C22.3594 33.0723 21.8027 32.5156 21.5059 31.7734C21.0605 30.6973 21.1719 28.0996 21.1719 26.875C21.1719 25.6875 21.0605 23.0898 21.5059 21.9766C21.8027 21.2715 22.3594 20.7148 23.1016 20.418C24.1777 19.9727 26.7754 20.084 28 20.084C29.1875 20.084 31.7852 19.9727 32.8984 20.418C33.6035 20.6777 34.1602 21.2715 34.457 21.9766C34.9023 23.0898 34.791 25.6875 34.791 26.875C34.791 28.0996 34.9023 30.6973 34.457 31.7734Z" fill="white"/>
</svg>
