<svg width="98" height="49" viewBox="0 0 98 49" fill="none" xmlns="http://www.w3.org/2000/svg">
<path d="M15.4248 48.75C13.0632 48.75 10.8423 48.2625 8.76234 47.2875C6.70401 46.3125 4.92734 44.9583 3.43234 43.225C1.93734 41.4917 0.864844 39.4767 0.214844 37.18L8.72984 34.905C9.01151 36.01 9.50984 36.9633 10.2248 37.765C10.9615 38.5667 11.8065 39.195 12.7598 39.65C13.7348 40.0833 14.7315 40.3 15.7498 40.3C17.0932 40.3 18.3173 39.975 19.4223 39.325C20.549 38.675 21.4373 37.7975 22.0873 36.6925C22.759 35.5875 23.0948 34.3633 23.0948 33.02C23.0948 31.6767 22.759 30.4525 22.0873 29.3475C21.4373 28.2425 20.549 27.365 19.4223 26.715C18.3173 26.065 17.0932 25.74 15.7498 25.74C14.1032 25.74 12.7598 26.0217 11.7198 26.585C10.6798 27.1267 9.89984 27.6467 9.37984 28.145L1.90484 25.87L3.33484 0.974999H28.8798V9.23H8.20984L11.3298 6.305L10.3548 22.36L8.85984 20.54C10.0298 19.5867 11.3623 18.8933 12.8573 18.46C14.3523 18.0267 15.7498 17.81 17.0498 17.81C19.9965 17.81 22.5857 18.4708 24.8173 19.7925C27.0707 21.0925 28.8257 22.8908 30.0823 25.1875C31.3607 27.4625 31.9998 30.0733 31.9998 33.02C31.9998 35.9667 31.2307 38.6317 29.6923 41.015C28.154 43.3767 26.1282 45.2617 23.6148 46.67C21.1015 48.0567 18.3715 48.75 15.4248 48.75Z" fill="white"/>
<path d="M53.8962 48.75C50.4295 48.75 47.3962 48.0242 44.7962 46.5725C42.1962 45.1208 40.1704 43.095 38.7187 40.495C37.267 37.895 36.5412 34.8617 36.5412 31.395V17.355C36.5412 13.8883 37.267 10.855 38.7187 8.255C40.1704 5.655 42.1962 3.62916 44.7962 2.1775C47.3962 0.725832 50.4295 0 53.8962 0C57.3629 0 60.3962 0.725832 62.9962 2.1775C65.5962 3.62916 67.622 5.655 69.0737 8.255C70.5254 10.855 71.2512 13.8883 71.2512 17.355V31.395C71.2512 34.8617 70.5254 37.895 69.0737 40.495C67.622 43.095 65.5962 45.1208 62.9962 46.5725C60.3962 48.0242 57.3629 48.75 53.8962 48.75ZM53.8962 40.365C55.4562 40.365 56.8645 39.9967 58.1212 39.26C59.3779 38.5233 60.3745 37.5267 61.1112 36.27C61.8479 35.0133 62.2162 33.605 62.2162 32.045V16.64C62.2162 15.08 61.8479 13.6717 61.1112 12.415C60.3745 11.1583 59.3779 10.1617 58.1212 9.425C56.8645 8.68833 55.4562 8.32 53.8962 8.32C52.3362 8.32 50.9279 8.68833 49.6712 9.425C48.4145 10.1617 47.4179 11.1583 46.6812 12.415C45.9445 13.6717 45.5762 15.08 45.5762 16.64V32.045C45.5762 33.605 45.9445 35.0133 46.6812 36.27C47.4179 37.5267 48.4145 38.5233 49.6712 39.26C50.9279 39.9967 52.3362 40.365 53.8962 40.365Z" fill="white"/>
<path d="M76.74 47.775L75.24 46.275L95.385 26.175L96.885 27.66L76.74 47.775ZM92.385 48.225C91.395 48.225 90.49 47.985 89.67 47.505C88.86 47.015 88.21 46.365 87.72 45.555C87.23 44.735 86.985 43.825 86.985 42.825C86.985 41.845 87.235 40.945 87.735 40.125C88.235 39.305 88.895 38.65 89.715 38.16C90.535 37.67 91.425 37.425 92.385 37.425C93.375 37.425 94.28 37.67 95.1 38.16C95.92 38.64 96.57 39.29 97.05 40.11C97.54 40.92 97.785 41.825 97.785 42.825C97.785 43.825 97.54 44.735 97.05 45.555C96.57 46.365 95.92 47.015 95.1 47.505C94.28 47.985 93.375 48.225 92.385 48.225ZM92.385 46.23C92.995 46.23 93.56 46.075 94.08 45.765C94.6 45.455 95.015 45.045 95.325 44.535C95.635 44.015 95.79 43.445 95.79 42.825C95.79 42.205 95.635 41.64 95.325 41.13C95.015 40.61 94.6 40.195 94.08 39.885C93.56 39.575 92.995 39.42 92.385 39.42C91.765 39.42 91.195 39.575 90.675 39.885C90.165 40.195 89.75 40.61 89.43 41.13C89.12 41.64 88.965 42.205 88.965 42.825C88.965 43.445 89.12 44.015 89.43 44.535C89.75 45.045 90.165 45.455 90.675 45.765C91.195 46.075 91.765 46.23 92.385 46.23ZM79.74 36.525C78.75 36.525 77.845 36.285 77.025 35.805C76.205 35.315 75.55 34.665 75.06 33.855C74.58 33.035 74.34 32.125 74.34 31.125C74.34 30.145 74.59 29.245 75.09 28.425C75.59 27.605 76.25 26.95 77.07 26.46C77.89 25.97 78.78 25.725 79.74 25.725C80.73 25.725 81.63 25.97 82.44 26.46C83.26 26.94 83.915 27.59 84.405 28.41C84.895 29.22 85.14 30.125 85.14 31.125C85.14 32.125 84.895 33.035 84.405 33.855C83.915 34.665 83.26 35.315 82.44 35.805C81.63 36.285 80.73 36.525 79.74 36.525ZM79.74 34.53C80.36 34.53 80.925 34.375 81.435 34.065C81.955 33.755 82.37 33.345 82.68 32.835C82.99 32.315 83.145 31.745 83.145 31.125C83.145 30.505 82.99 29.94 82.68 29.43C82.37 28.91 81.955 28.495 81.435 28.185C80.925 27.875 80.36 27.72 79.74 27.72C79.12 27.72 78.55 27.875 78.03 28.185C77.52 28.495 77.11 28.91 76.8 29.43C76.49 29.94 76.335 30.505 76.335 31.125C76.335 31.745 76.49 32.315 76.8 32.835C77.11 33.345 77.52 33.755 78.03 34.065C78.55 34.375 79.12 34.53 79.74 34.53Z" fill="white"/>
</svg>
